<?xml version="1.0" encoding="utf-8"?>
<!-- Generator: Adobe Illustrator 16.0.0, SVG Export Plug-In . SVG Version: 6.00 Build 0)  -->
<!DOCTYPE svg PUBLIC "-//W3C//DTD SVG 1.1//EN" "http://www.w3.org/Graphics/SVG/1.1/DTD/svg11.dtd">
<svg version="1.1" id="Layer_1" xmlns="http://www.w3.org/2000/svg" xmlns:xlink="http://www.w3.org/1999/xlink" x="0px" y="0px"
	 width="920.953px" height="241.486px" viewBox="0 0 920.953 241.486" enable-background="new 0 0 920.953 241.486"
	 xml:space="preserve">
<g>
	<path fill="#2D2D2D" d="M57.18,153.085h15.582v69.816H57.18v-27.467H29.414v27.467H13.833v-69.816h15.581v29.165H57.18V153.085z"/>
	<path fill="#2D2D2D" d="M145.473,213.263c-7.059,6.892-15.749,10.338-26.069,10.338c-10.322,0-19.011-3.446-26.068-10.338
		c-7.059-6.892-10.587-15.464-10.587-25.719c0-10.254,3.529-18.827,10.587-25.72c7.057-6.892,15.747-10.337,26.068-10.337
		c10.32,0,19.01,3.445,26.069,10.337c7.057,6.893,10.587,15.466,10.587,25.72C156.06,197.799,152.53,206.371,145.473,213.263z
		 M140.179,187.594c0-6.226-1.998-11.536-5.993-15.931c-3.995-4.396-8.906-6.593-14.732-6.593c-5.828,0-10.737,2.197-14.732,6.593
		c-3.995,4.395-5.993,9.705-5.993,15.931c0,6.227,1.998,11.521,5.993,15.881c3.995,4.362,8.905,6.542,14.732,6.542
		c5.826,0,10.737-2.18,14.732-6.542C138.181,199.115,140.179,193.821,140.179,187.594z"/>
	<path fill="#2D2D2D" d="M184.525,204.873c2.597,3.23,6.093,4.844,10.487,4.844s7.873-1.613,10.438-4.844
		c2.563-3.229,3.845-7.641,3.845-13.234v-38.554h15.581v39.054c0,10.122-2.796,17.896-8.39,23.321
		c-5.593,5.428-12.752,8.141-21.474,8.141c-8.724,0-15.898-2.729-21.524-8.19c-5.628-5.459-8.44-13.217-8.44-23.271v-39.054h15.581
		v38.554C180.629,197.233,181.927,201.644,184.525,204.873z"/>
	<path fill="#2D2D2D" d="M254.189,167.019c-1.498,1.232-2.248,2.863-2.248,4.894c0,2.032,0.915,3.646,2.747,4.845
		c1.831,1.198,6.058,2.614,12.685,4.245c6.625,1.632,11.769,4.079,15.431,7.341c3.661,3.264,5.494,8.024,5.494,14.283
		c0,6.26-2.347,11.336-7.042,15.231s-10.872,5.843-18.528,5.843c-11.054,0-21.009-4.095-29.864-12.285l9.289-11.387
		c7.524,6.593,14.482,9.889,20.875,9.889c2.862,0,5.109-0.615,6.742-1.848c1.631-1.231,2.447-2.896,2.447-4.994
		s-0.866-3.761-2.597-4.994c-1.732-1.231-5.161-2.479-10.288-3.745c-8.125-1.931-14.067-4.445-17.828-7.541
		c-3.763-3.097-5.644-7.956-5.644-14.583c0-6.625,2.38-11.735,7.142-15.331c4.76-3.596,10.703-5.394,17.829-5.394
		c4.66,0,9.321,0.799,13.983,2.396c4.66,1.599,8.722,3.863,12.186,6.792l-7.891,11.387c-6.06-4.595-12.319-6.892-18.777-6.892
		C257.735,165.171,255.687,165.787,254.189,167.019z"/>
	<path fill="#2D2D2D" d="M348.723,153.085v13.884h-34.758v14.383h31.262v13.283h-31.262v14.483h35.856v13.783h-51.438v-69.816
		H348.723z"/>
	<path fill="#2D2D2D" d="M446.204,178.954l-18.877,38.154h-9.289l-18.777-38.154v43.947H383.68v-69.816h21.074l17.979,38.354
		l18.078-38.354h20.975v69.816h-15.581V178.954z"/>
	<path fill="#2D2D2D" d="M534.496,213.263c-7.059,6.892-15.748,10.338-26.068,10.338c-10.322,0-19.012-3.446-26.068-10.338
		c-7.059-6.892-10.588-15.464-10.588-25.719c0-10.254,3.529-18.827,10.588-25.72c7.057-6.892,15.746-10.337,26.068-10.337
		c10.32,0,19.01,3.445,26.068,10.337c7.058,6.893,10.588,15.466,10.588,25.72C545.084,197.799,541.554,206.371,534.496,213.263z
		 M529.203,187.594c0-6.226-1.998-11.536-5.993-15.931c-3.995-4.396-8.906-6.593-14.731-6.593c-5.828,0-10.738,2.197-14.732,6.593
		c-3.996,4.395-5.993,9.705-5.993,15.931c0,6.227,1.997,11.521,5.993,15.881c3.994,4.362,8.904,6.542,14.732,6.542
		c5.825,0,10.736-2.18,14.731-6.542C527.205,199.115,529.203,193.821,529.203,187.594z"/>
	<path fill="#2D2D2D" d="M579.242,197.532l17.778-44.447h16.88l-28.066,69.816h-13.184l-28.066-69.816h16.879L579.242,197.532z"/>
	<path fill="#2D2D2D" d="M669.332,153.085v13.884h-34.758v14.383h31.262v13.283h-31.262v14.483h35.856v13.783h-51.438v-69.816
		H669.332z"/>
	<path fill="#00897B" d="M752.381,159.327c4.893,4.163,7.34,10.555,7.34,19.178c0,8.624-2.514,14.932-7.541,18.927
		s-12.701,5.993-23.021,5.993h-9.289v19.477h-15.581v-69.816h24.671C739.678,153.085,747.487,155.167,752.381,159.327z
		 M740.944,186.795c1.863-2.098,2.797-5.16,2.797-9.189c0-4.027-1.215-6.892-3.645-8.59c-2.432-1.697-6.211-2.547-11.338-2.547
		h-8.889v23.472h10.488C735.551,189.941,739.08,188.893,740.944,186.795z"/>
	<path fill="#00897B" d="M825.34,176.257c0,11.188-4.428,18.413-13.283,21.675l17.68,24.97h-19.178l-15.48-22.273h-10.787v22.273
		h-15.582v-69.816h26.469c10.852,0,18.592,1.832,23.221,5.493C823.028,162.241,825.34,168.134,825.34,176.257z M806.565,184.547
		c1.93-1.73,2.896-4.477,2.896-8.239c0-3.762-1-6.343-2.998-7.741c-1.996-1.398-5.492-2.098-10.486-2.098h-11.686v20.676h11.385
		C801.004,187.145,804.631,186.28,806.565,184.547z"/>
	<path fill="#00897B" d="M896.156,213.263c-7.059,6.892-15.748,10.338-26.068,10.338c-10.322,0-19.012-3.446-26.068-10.338
		c-7.059-6.892-10.588-15.464-10.588-25.719c0-10.254,3.529-18.827,10.588-25.72c7.057-6.892,15.746-10.337,26.068-10.337
		c10.32,0,19.01,3.445,26.068,10.337c7.057,6.893,10.588,15.466,10.588,25.72C906.744,197.799,903.213,206.371,896.156,213.263z
		 M890.864,187.594c0-6.226-1.998-11.536-5.994-15.931c-3.994-4.396-8.906-6.593-14.732-6.593s-10.736,2.197-14.73,6.593
		c-3.996,4.395-5.994,9.705-5.994,15.931c0,6.227,1.998,11.521,5.994,15.881c3.994,4.362,8.904,6.542,14.73,6.542
		s10.738-2.18,14.732-6.542C888.865,199.115,890.864,193.821,890.864,187.594z"/>
</g>
<polygon fill="#00897B" points="543.934,133.243 899.432,133.243 721.684,19.61 "/>
<rect x="775.977" y="36.243" fill="#00897B" width="37" height="59"/>
</svg>
