<?xml version="1.0" encoding="utf-8"?>
<!-- Generator: Adobe Illustrator 16.0.0, SVG Export Plug-In . SVG Version: 6.00 Build 0)  -->
<!DOCTYPE svg PUBLIC "-//W3C//DTD SVG 1.1//EN" "http://www.w3.org/Graphics/SVG/1.1/DTD/svg11.dtd">
<svg version="1.1" id="Layer_1" xmlns="http://www.w3.org/2000/svg" xmlns:xlink="http://www.w3.org/1999/xlink" x="0px" y="0px"
	 width="574.016px" height="467.977px" viewBox="0 0 574.016 467.977" enable-background="new 0 0 574.016 467.977"
	 xml:space="preserve">
<g>
	<path fill="#4D4D4D" d="M82.566,260.14v-44.792h7.562v19.416h22.236v-19.416h7.561v44.792h-7.561v-18.327H90.128v18.327H82.566z"/>
	<path fill="#4D4D4D" d="M167.984,253.956c-4.529,4.422-10.125,6.632-16.789,6.632c-6.664,0-12.261-2.21-16.789-6.632
		c-4.528-4.422-6.792-9.933-6.792-16.533c0-6.6,2.264-12.11,6.792-16.532c4.528-4.422,10.125-6.632,16.789-6.632
		c6.665,0,12.26,2.21,16.789,6.632c4.527,4.422,6.792,9.933,6.792,16.532C174.776,244.023,172.511,249.534,167.984,253.956z
		 M162.441,225.921c-3.055-3.161-6.804-4.742-11.246-4.742c-4.443,0-8.192,1.581-11.246,4.742
		c-3.055,3.162-4.582,6.996-4.582,11.502c0,4.508,1.527,8.342,4.582,11.503c3.054,3.162,6.803,4.742,11.246,4.742
		c4.442,0,8.191-1.58,11.246-4.742c3.054-3.161,4.582-6.995,4.582-11.503C167.022,232.917,165.495,229.083,162.441,225.921z"/>
	<path fill="#4D4D4D" d="M192.526,249.887c2.05,2.394,4.827,3.589,8.331,3.589c3.502,0,6.28-1.195,8.33-3.589
		c2.051-2.392,3.076-5.639,3.076-9.74v-24.799h7.561v25.119c0,6.451-1.773,11.418-5.318,14.898
		c-3.546,3.482-8.096,5.223-13.649,5.223c-5.554,0-10.104-1.74-13.649-5.223c-3.546-3.48-5.318-8.447-5.318-14.898v-25.119h7.562
		v24.799C189.45,244.248,190.475,247.495,192.526,249.887z"/>
	<path fill="#4D4D4D" d="M243.372,221.243c-2.201,0-4.005,0.448-5.415,1.346s-2.115,2.254-2.115,4.069s0.705,3.204,2.115,4.165
		s4.411,1.997,9.003,3.107c4.592,1.111,8.052,2.671,10.381,4.678c2.328,2.009,3.492,4.967,3.492,8.875
		c0,3.909-1.474,7.081-4.421,9.517c-2.948,2.435-6.814,3.652-11.599,3.652c-7.007,0-13.223-2.413-18.647-7.241l4.742-5.703
		c4.528,3.931,9.228,5.896,14.098,5.896c2.435,0,4.367-0.522,5.799-1.57c1.431-1.046,2.146-2.435,2.146-4.165
		s-0.673-3.075-2.019-4.037c-1.346-0.961-3.664-1.836-6.953-2.627c-3.29-0.79-5.789-1.516-7.498-2.179
		c-1.709-0.662-3.226-1.527-4.549-2.596c-2.649-2.007-3.973-5.083-3.973-9.228c0-4.143,1.506-7.337,4.518-9.579
		c3.012-2.243,6.738-3.364,11.182-3.364c2.861,0,5.703,0.47,8.522,1.409c2.82,0.94,5.255,2.265,7.305,3.973l-4.037,5.703
		c-1.325-1.195-3.119-2.179-5.383-2.947C247.804,221.628,245.572,221.243,243.372,221.243z"/>
	<path fill="#4D4D4D" d="M299.794,215.348v7.113h-23.902v11.854h21.467v6.729h-21.467v11.982h24.671v7.113h-32.232v-44.792H299.794z
		"/>
	<path fill="#4D4D4D" d="M331.64,260.14h-7.562v-44.792h11.791l13.521,28.131l13.521-28.131h11.726v44.792h-7.561v-34.987
		L351.44,256.23h-4.229l-15.571-31.078V260.14z"/>
	<path fill="#4D4D4D" d="M422.695,253.956c-4.529,4.422-10.124,6.632-16.789,6.632c-6.664,0-12.261-2.21-16.789-6.632
		c-4.528-4.422-6.792-9.933-6.792-16.533c0-6.6,2.264-12.11,6.792-16.532c4.528-4.422,10.125-6.632,16.789-6.632
		c6.665,0,12.26,2.21,16.789,6.632c4.527,4.422,6.792,9.933,6.792,16.532C429.488,244.023,427.223,249.534,422.695,253.956z
		 M417.153,225.921c-3.055-3.161-6.804-4.742-11.246-4.742c-4.443,0-8.192,1.581-11.246,4.742
		c-3.055,3.162-4.582,6.996-4.582,11.502c0,4.508,1.527,8.342,4.582,11.503c3.054,3.162,6.803,4.742,11.246,4.742
		c4.442,0,8.191-1.58,11.246-4.742c3.053-3.161,4.581-6.995,4.581-11.503C421.734,232.917,420.206,229.083,417.153,225.921z"/>
	<path fill="#4D4D4D" d="M456.85,260.14h-8.458l-18.006-44.792h8.458l13.777,33.45l13.776-33.45h8.458L456.85,260.14z"/>
	<path fill="#4D4D4D" d="M510.869,215.348v7.113h-23.902v11.854h21.468v6.729h-21.468v11.982h24.671v7.113h-32.232v-44.792H510.869z
		"/>
</g>
<g>
	<path fill="#2D2D2D" d="M185.961,285.76c10.51,8.938,15.765,22.665,15.765,41.182c0,18.521-5.399,32.066-16.194,40.646
		c-10.798,8.579-27.277,12.869-49.439,12.869h-19.947v41.825h-33.46V272.354h52.978C158.685,272.354,175.452,276.825,185.961,285.76
		z M161.403,344.744c4.001-4.504,6.006-11.079,6.006-19.732c0-8.65-2.611-14.8-7.829-18.446c-5.221-3.646-13.335-5.47-24.344-5.47
		h-19.089v50.405h22.521C149.82,351.501,157.398,349.249,161.403,344.744z"/>
	<path fill="#2D2D2D" d="M342.642,322.115c0,24.023-9.511,39.54-28.526,46.545l37.964,53.622h-41.182l-33.246-47.831h-23.165v47.831
		h-33.459V272.354h56.838c23.306,0,39.929,3.935,49.869,11.797C337.671,292.017,342.642,304.672,342.642,322.115z M302.318,339.918
		c4.146-3.717,6.22-9.615,6.22-17.695c0-8.076-2.145-13.62-6.435-16.623c-4.29-3.003-11.797-4.504-22.521-4.504h-25.095v44.399
		h24.452C290.377,345.495,298.169,343.639,302.318,339.918z"/>
	<path fill="#2D2D2D" d="M494.714,401.584c-15.159,14.8-33.819,22.199-55.982,22.199c-22.166,0-40.826-7.399-55.981-22.199
		c-15.158-14.8-22.735-33.209-22.735-55.231c0-22.019,7.577-40.431,22.735-55.23c15.155-14.8,33.815-22.2,55.981-22.2
		c22.163,0,40.823,7.4,55.982,22.2c15.154,14.8,22.734,33.212,22.734,55.23C517.448,368.375,509.868,386.784,494.714,401.584z
		 M483.345,346.46c0-13.368-4.29-24.773-12.869-34.211c-8.579-9.438-19.126-14.156-31.637-14.156
		c-12.514,0-23.057,4.719-31.637,14.156s-12.87,20.843-12.87,34.211c0,13.372,4.29,24.74,12.87,34.104
		c8.58,9.367,19.123,14.049,31.637,14.049c12.511,0,23.058-4.682,31.637-14.049C479.056,371.2,483.345,359.832,483.345,346.46z"/>
</g>
<polygon fill="#00897B" points="15.998,196.521 574.016,196.521 295.008,18.151 "/>
<rect x="382.553" y="38.521" fill="#00897B" width="55" height="96"/>
<line fill="none" stroke="#00897B" stroke-width="2" stroke-miterlimit="10" x1="61.553" y1="191.521" x2="61.553" y2="446.521"/>
<line fill="none" stroke="#00897B" stroke-width="2" stroke-miterlimit="10" x1="532.553" y1="191.521" x2="532.553" y2="446.521"/>
<line fill="none" stroke="#00897B" stroke-width="2" stroke-miterlimit="10" x1="61.553" y1="446.521" x2="532.553" y2="446.521"/>
</svg>
